<?xml version="1.0" encoding="UTF-8"?>
<svg width="3300px" height="2200px" viewBox="0 0 3300 2200" version="1.1" xmlns="http://www.w3.org/2000/svg" xmlns:xlink="http://www.w3.org/1999/xlink">
    <!-- Generator: Sketch 61.2 (89653) - https://sketch.com -->
    <title>capsule</title>
    <desc>Created with Sketch.</desc>
    <g id="Page-1" stroke="none" stroke-width="1" fill="none" fill-rule="evenodd">
        <g id="capsule">
            <g id="Notes">
                <rect id="artboard" fill="#FFFFFF" fill-rule="nonzero" x="0" y="0" width="3300" height="2200"></rect>
                <line x1="263" y1="292" x2="3036" y2="292" id="Path" stroke="#000000" stroke-width="0.5"></line>
                <text id="Weight/Scale-Variations" fill="#000000" font-family="Helvetica" font-size="13" font-weight="normal">
                    <tspan x="263" y="322">Weight/Scale Variations</tspan>
                </text>
                <text id="Ultralight" fill="#000000" font-family="Helvetica" font-size="13" font-weight="normal">
                    <tspan x="533.711" y="322">Ultralight</tspan>
                </text>
                <text id="Thin" fill="#000000" font-family="Helvetica" font-size="13" font-weight="normal">
                    <tspan x="843.422" y="322">Thin</tspan>
                </text>
                <text id="Light" fill="#000000" font-family="Helvetica" font-size="13" font-weight="normal">
                    <tspan x="1138.63" y="322">Light</tspan>
                </text>
                <text id="Regular" fill="#000000" font-family="Helvetica" font-size="13" font-weight="normal">
                    <tspan x="1426.84" y="322">Regular</tspan>
                </text>
                <text id="Medium" fill="#000000" font-family="Helvetica" font-size="13" font-weight="normal">
                    <tspan x="1723.06" y="322">Medium</tspan>
                </text>
                <text id="Semibold" fill="#000000" font-family="Helvetica" font-size="13" font-weight="normal">
                    <tspan x="2015.77" y="322">Semibold</tspan>
                </text>
                <text id="Bold" fill="#000000" font-family="Helvetica" font-size="13" font-weight="normal">
                    <tspan x="2326.48" y="322">Bold</tspan>
                </text>
                <text id="Heavy" fill="#000000" font-family="Helvetica" font-size="13" font-weight="normal">
                    <tspan x="2618.19" y="322">Heavy</tspan>
                </text>
                <text id="Black" fill="#000000" font-family="Helvetica" font-size="13" font-weight="normal">
                    <tspan x="2917.4" y="322">Black</tspan>
                </text>
                <line x1="263" y1="1903" x2="3036" y2="1903" id="Path" stroke="#000000" stroke-width="0.5"></line>
                <g id="Group" transform="translate(264.200000, 1918.000000)" fill="#000000" fill-rule="nonzero">
                    <path d="M8.04804,15.830078 C12.35468,15.830078 15.93866,12.255858 15.93866,7.949218 C15.93866,3.642578 12.3449,0.068358 8.03826,0.068358 C3.74138,0.068358 0.16716,3.642578 0.16716,7.949218 C0.16716,12.255858 3.75114,15.830078 8.04802,15.830078 L8.04804,15.830078 Z M8.04804,14.345702 C4.50312,14.345702 1.67108,11.503902 1.67108,7.949222 C1.67108,4.394542 4.49334,1.552742 8.03826,1.552742 C11.59294,1.552742 14.4445,4.394542 14.4445,7.949222 C14.4445,11.503902 11.6027,14.345702 8.04802,14.345702 L8.04804,14.345702 Z M4.45428,7.949222 C4.45428,8.37891 4.757014,8.671878 5.206234,8.671878 L7.305834,8.671878 L7.305834,10.791018 C7.305834,11.230472 7.598802,11.533206 8.02849,11.533206 C8.477708,11.533206 8.770678,11.230472 8.770678,10.791018 L8.770678,8.671878 L10.889818,8.671878 C11.329272,8.671878 11.632006,8.37891 11.632006,7.949222 C11.632006,7.509768 11.329272,7.207034 10.889818,7.207034 L8.770678,7.207034 L8.770678,5.097654 C8.770678,4.648436 8.47771,4.3457 8.02849,4.3457 C7.598802,4.3457 7.305834,4.648434 7.305834,5.097654 L7.305834,7.207034 L5.206234,7.207034 C4.757016,7.207034 4.45428,7.509768 4.45428,7.949222 Z" id="Shape"></path>
                </g>
                <g id="Group" transform="translate(283.106000, 1915.800000)" fill="#000000" fill-rule="nonzero">
                    <path d="M10.10898,20.11016 C15.5582,20.11016 20.06992,15.58868 20.06992,10.14922 C20.06992,4.7 15.54844,0.18828 10.09922,0.18828 C4.65976,0.18828 0.14804,4.7 0.14804,10.14922 C0.14804,15.58868 4.66952,20.11016 10.10898,20.11016 Z M10.10898,18.450004 C5.4996,18.450004 1.81796,14.758604 1.81796,10.149224 C1.81796,5.539844 5.48984,1.848444 10.0992,1.848444 C14.70856,1.848444 18.40974,5.539844 18.40974,10.149224 C18.40974,14.758604 14.71834,18.450004 10.10896,18.450004 L10.10898,18.450004 Z M5.57774,10.149224 C5.57774,10.62774 5.909772,10.950006 6.407818,10.950006 L9.278918,10.950006 L9.278918,13.830866 C9.278918,14.319148 9.61095,14.660944 10.089464,14.660944 C10.57774,14.660944 10.919542,14.328912 10.919542,13.830866 L10.919542,10.950006 L13.800402,10.950006 C14.288684,10.950006 14.63048,10.62774 14.63048,10.149224 C14.63048,9.660942 14.288684,9.319146 13.800402,9.319146 L10.919542,9.319146 L10.919542,6.448046 C10.919542,5.95 10.57774,5.608202 10.089464,5.608202 C9.610948,5.608202 9.278918,5.949998 9.278918,6.448046 L9.278918,9.319146 L6.407818,9.319146 C5.909772,9.319146 5.57774,9.660942 5.57774,10.149224 Z" id="Shape"></path>
                </g>
                <g id="Group" transform="translate(307.124000, 1913.200000)" fill="#000000" fill-rule="nonzero">
                    <path d="M12.7707,25.46406 C19.7336,25.46406 25.4953,19.70234 25.4953,12.74922 C25.4953,5.78632 19.72382,0.02462 12.76092,0.02462 C5.8078,0.02462 0.05584,5.78634 0.05584,12.74922 C0.05584,19.70234 5.81756,25.46406 12.77068,25.46406 L12.7707,25.46406 Z M12.7707,23.647654 C6.73554,23.647654 1.88202,18.784374 1.88202,12.749214 C1.88202,6.704294 6.72578,1.850774 12.76092,1.850774 C18.80584,1.850774 23.66912,6.704294 23.66912,12.749214 C23.66912,18.784374 18.8156,23.647654 12.77068,23.647654 L12.7707,23.647654 Z M6.99922,12.749214 C6.99922,13.266792 7.370314,13.62812 7.917188,13.62812 L11.862508,13.62812 L11.862508,17.5832 C11.862508,18.12031 12.233602,18.501168 12.75118,18.501168 C13.28829,18.501168 13.659384,18.130074 13.659384,17.5832 L13.659384,13.62812 L17.614464,13.62812 C18.151574,13.62812 18.532432,13.266792 18.532432,12.749214 C18.532432,12.202338 18.161338,11.831246 17.614464,11.831246 L13.659384,11.831246 L13.659384,7.885926 C13.659384,7.33905 13.28829,6.958192 12.75118,6.958192 C12.233602,6.958192 11.862508,7.339052 11.862508,7.885926 L11.862508,11.831246 L7.917188,11.831246 C7.370312,11.831246 6.99922,12.20234 6.99922,12.749214 Z" id="Shape"></path>
                </g>
                <text id="Design-Variations" fill="#000000" font-family="Helvetica" font-size="13" font-weight="normal">
                    <tspan x="263" y="1953">Design Variations</tspan>
                </text>
                <text id="Symbols-are-supported-in-up-to-nine-weights-and-three-scales." fill="#000000" font-family="Helvetica" font-size="13" font-weight="normal">
                    <tspan x="263" y="1971">Symbols are supported in up to nine weights and three scales.</tspan>
                </text>
                <text id="For-optimal-layout-with-text-and-other-symbols,-vertically-align" fill="#000000" font-family="Helvetica" font-size="13" font-weight="normal">
                    <tspan x="263" y="1989">For optimal layout with text and other symbols, vertically align</tspan>
                </text>
                <text id="symbols-with-the-adjacent-text." fill="#000000" font-family="Helvetica" font-size="13" font-weight="normal">
                    <tspan x="263" y="2007">symbols with the adjacent text.</tspan>
                </text>
                <line x1="776" y1="1919" x2="776" y2="1933" id="Path" stroke="#00AEEF" stroke-width="0.5"></line>
                <g id="Group" transform="translate(778.400000, 1918.600000)" fill="#000000" fill-rule="nonzero">
                    <path d="M0.91054,14.556258 C1.428118,14.556258 1.682024,14.3609376 1.867572,13.814062 L3.127338,10.366802 L8.889058,10.366802 L10.148824,13.814062 C10.3343708,14.360938 10.588278,14.556258 11.09609,14.556258 C11.613668,14.556258 11.9457,14.24375 11.9457,13.755468 C11.9457,13.5894524 11.9164032,13.433202 11.8382782,13.228124 L7.2581982,1.030864 C7.0335882,0.43516 6.6331982,0.132426 6.0081982,0.132426 C5.4027302,0.132426 4.9925742,0.425394 4.7777302,1.021098 L0.1976502,13.237898 C0.1195252,13.442976 0.0902284,13.599226 0.0902284,13.765242 C0.0902284,14.253524 0.4027284,14.556258 0.9105404,14.556258 L0.91054,14.556258 Z M3.60586,8.88243 L5.9789,2.31017 L6.0277282,2.31017 L8.4007682,8.88243 L3.60586,8.88243 Z" id="Shape"></path>
                </g>
                <line x1="792.836" y1="1919" x2="792.836" y2="1933" id="Path" stroke="#00AEEF" stroke-width="0.5"></line>
                <text id="Margins" fill="#000000" font-family="Helvetica" font-size="13" font-weight="normal">
                    <tspan x="776" y="1953">Margins</tspan>
                </text>
                <text id="Leading-and-trailing-margins-on-the-left-and-right-side-of-each-symbol" fill="#000000" font-family="Helvetica" font-size="13" font-weight="normal">
                    <tspan x="776" y="1971">Leading and trailing margins on the left and right side of each symbol</tspan>
                </text>
                <text id="can-be-adjusted-by-modifying-the-x-location-of-the-margin-guidelines." fill="#000000" font-family="Helvetica" font-size="13" font-weight="normal">
                    <tspan x="776" y="1989">can be adjusted by modifying the x-location of the margin guidelines.</tspan>
                </text>
                <text id="Modifications-are-automatically-applied-proportionally-to-all" fill="#000000" font-family="Helvetica" font-size="13" font-weight="normal">
                    <tspan x="776" y="2007">Modifications are automatically applied proportionally to all</tspan>
                </text>
                <text id="scales-and-weights." fill="#000000" font-family="Helvetica" font-size="13" font-weight="normal">
                    <tspan x="776" y="2025">scales and weights.</tspan>
                </text>
                <g id="Group" transform="translate(1291.200000, 1914.400000)" fill="#000000" fill-rule="nonzero">
                    <path d="M0.6418,20.465234 L2.341018,22.174218 C3.200394,23.043358 4.186722,22.984764 5.114458,21.959374 L15.807818,10.172274 L14.841022,9.195712 L4.225782,20.875392 C3.87422,21.275782 3.542188,21.373438 3.073438,20.9046888 L1.901562,19.7425788 C1.432812,19.2835948 1.540234,18.9417968 1.9406244,18.5804688 L13.4152244,7.7796888 L12.4386624,6.8128928 L0.8468624,17.7015728 C-0.1394656,18.6195408 -0.2175916,19.5961048 0.6417844,20.4652528 L0.6418,20.465234 Z M7.05782,2.271874 C6.637898,2.68203 6.608602,3.258202 6.842976,3.648828 C7.077352,4.010156 7.536336,4.244532 8.180866,4.078516 C9.64571,3.73672 11.169146,3.678126 12.594926,4.615626 L12.008988,6.070704 C11.667192,6.900782 11.8429724,7.48672 12.380082,8.033594 L14.675002,10.348054 C15.163284,10.836336 15.57344,10.855866 16.139846,10.75821 L17.2043,10.5628976 L17.868362,11.2367256 L17.8292996,11.7933656 C17.7902372,12.2914116 17.9171902,12.6722716 18.4054716,13.1507876 L19.1671896,13.8929756 C19.6457056,14.3714916 20.2609396,14.4007876 20.7296896,13.932038 L23.6398496,11.012118 C24.1085996,10.543368 24.0890676,9.947664 23.6105528,9.46915 L22.8390688,8.707432 C22.3605528,8.228916 21.9894588,8.072666 21.5109448,8.111728 L20.9347728,8.1605562 L20.2902408,7.5257902 L20.5343808,6.4027442 C20.661334,5.8363382 20.505084,5.3968842 19.9191468,4.8109482 L17.7218868,2.6234482 C14.3820468,-0.6968718 9.9484468,-0.6187318 7.0578268,2.2718862 L7.05782,2.271874 Z M8.55196,2.642968 C10.9836,0.865624 14.27462,1.168358 16.50118,3.394922 L18.93282,5.807022 C19.167196,6.041398 19.206258,6.226944 19.137898,6.56874 L18.815632,8.053116 L20.319538,9.537492 L21.305866,9.4788982 C21.559772,9.46913258 21.637898,9.48866382 21.83321,9.6839762 L22.409382,10.2601482 L19.967982,12.7015482 L19.39181,12.1253762 C19.1964976,11.9300638 19.1672,11.8519382 19.176966,11.5882662 L19.2453254,10.6117042 L17.7511854,9.1273282 L16.2277474,9.3812342 C15.9054814,9.4495936 15.7589974,9.4202966 15.5148574,9.1859218 L13.5128974,7.1839618 C13.2589914,6.9495858 13.2296934,6.7835718 13.3859442,6.4124778 L14.2648502,4.3226378 C12.7023502,2.8675598 10.6710902,2.2425578 8.6398502,2.8382618 C8.4836002,2.8773242 8.4250062,2.7503712 8.5519596,2.6429494 L8.55196,2.642968 Z" id="Shape"></path>
                </g>
                <text id="Exporting" fill="#000000" font-family="Helvetica" font-size="13" font-weight="normal">
                    <tspan x="1289" y="1953">Exporting</tspan>
                </text>
                <text id="Symbols-should-be-outlined-when-exporting-to-ensure-the" fill="#000000" font-family="Helvetica" font-size="13" font-weight="normal">
                    <tspan x="1289" y="1971">Symbols should be outlined when exporting to ensure the</tspan>
                </text>
                <text id="design-is-preserved-when-submitting-to-Xcode." fill="#000000" font-family="Helvetica" font-size="13" font-weight="normal">
                    <tspan x="1289" y="1989">design is preserved when submitting to Xcode.</tspan>
                </text>
                <text id="template-version" fill="#000000" font-family="Helvetica" font-size="13" font-weight="normal">
                    <tspan x="2952" y="1933">Template v.5.0</tspan>
                </text>
                <text id="Requires-Xcode-15-or-greater" fill="#000000" font-family="Helvetica" font-size="13" font-weight="normal">
                    <tspan x="2865" y="1951">Requires Xcode 15 or greater</tspan>
                </text>
                <text id="descriptive-name" fill="#000000" font-family="Helvetica" font-size="13" font-weight="normal">
                    <tspan x="2896" y="1969">Generated from capsule</tspan>
                </text>
                <text id="Typeset-at-100.0-points" fill="#000000" font-family="Helvetica" font-size="13" font-weight="normal">
                    <tspan x="2901" y="1987">Typeset at 100.0 points</tspan>
                </text>
                <text id="Small" fill="#000000" font-family="Helvetica" font-size="13" font-weight="normal">
                    <tspan x="263" y="726">Small</tspan>
                </text>
                <text id="Medium" fill="#000000" font-family="Helvetica" font-size="13" font-weight="normal">
                    <tspan x="263" y="1156">Medium</tspan>
                </text>
                <text id="Large" fill="#000000" font-family="Helvetica" font-size="13" font-weight="normal">
                    <tspan x="263" y="1586">Large</tspan>
                </text>
            </g>
            <g id="Guides" transform="translate(263.000000, 600.000000)">
                <g id="H-reference" transform="translate(76.000000, 25.000000)" fill="#27AAE1" fill-rule="nonzero">
                    <path d="M0.993654,71 L3.63775,71 L29.3281,3.8677 L30.0303,3.8677 L30.0303,0.541 L28.1226,0.541 L0.993654,71 Z M11.6885,46.5201 L46.9815,46.5201 L46.2315,44.2715 L12.4385,44.2715 L11.6885,46.5201 Z M55.1196,71 L57.7637,71 L30.6382,0.541 L29.4326,0.541 L29.4326,3.8677 L55.1196,71 Z" id="Shape"></path>
                </g>
                <line x1="0" y1="96" x2="2773" y2="96" id="Baseline-S" stroke="#27AAE1" stroke-width="0.5"></line>
                <line x1="0" y1="25.541" x2="2773" y2="25.541" id="Capline-S" stroke="#27AAE1" stroke-width="0.5"></line>
                <g id="H-reference" transform="translate(76.000000, 455.000000)" fill="#27AAE1" fill-rule="nonzero">
                    <path d="M0.993654,71 L3.63775,71 L29.3281,3.8677 L30.0303,3.8677 L30.0303,0.541 L28.1226,0.541 L0.993654,71 Z M11.6885,46.5201 L46.9815,46.5201 L46.2315,44.2715 L12.4385,44.2715 L11.6885,46.5201 Z M55.1196,71 L57.7637,71 L30.6382,0.541 L29.4326,0.541 L29.4326,3.8677 L55.1196,71 Z" id="Shape"></path>
                </g>
                <line x1="0" y1="526" x2="2773" y2="526" id="Baseline-M" stroke="#27AAE1" stroke-width="0.5"></line>
                <line x1="0" y1="455.54" x2="2773" y2="455.54" id="Capline-M" stroke="#27AAE1" stroke-width="0.5"></line>
                <g id="H-reference" transform="translate(76.000000, 885.000000)" fill="#27AAE1" fill-rule="nonzero">
                    <path d="M0.993654,71 L3.63775,71 L29.3281,3.8677 L30.0303,3.8677 L30.0303,0.541 L28.1226,0.541 L0.993654,71 Z M11.6885,46.5201 L46.9815,46.5201 L46.2315,44.2715 L12.4385,44.2715 L11.6885,46.5201 Z M55.1196,71 L57.7637,71 L30.6382,0.541 L29.4326,0.541 L29.4326,3.8677 L55.1196,71 Z" id="Shape"></path>
                </g>
                <line x1="0" y1="956" x2="2773" y2="956" id="Baseline-L" stroke="#27AAE1" stroke-width="0.5"></line>
                <line x1="0" y1="885.54" x2="2773" y2="885.54" id="Capline-L" stroke="#27AAE1" stroke-width="0.5"></line>
                <line x1="242.968" y1="0.785" x2="242.968" y2="120.121" id="left-margin-Ultralight-S" stroke="#00AEEF" stroke-width="0.5"></line>
                <line x1="350.455" y1="0.785" x2="350.455" y2="120.121" id="right-margin-Ultralight-S" stroke="#00AEEF" stroke-width="0.5"></line>
                <line x1="1130.4" y1="0.785" x2="1130.4" y2="120.121" id="left-margin-Regular-S" stroke="#00AEEF" stroke-width="0.5"></line>
                <line x1="1243.29" y1="0.785" x2="1243.29" y2="120.121" id="right-margin-Regular-S" stroke="#00AEEF" stroke-width="0.5"></line>
                <line x1="2611.27" y1="0.785" x2="2611.27" y2="120.121" id="left-margin-Black-S" stroke="#00AEEF" stroke-width="0.5"></line>
                <line x1="2729.53" y1="0.785" x2="2729.53" y2="120.121" id="right-margin-Black-S" stroke="#00AEEF" stroke-width="0.5"></line>
            </g>
            <g id="Symbols" transform="translate(511.000000, 611.000000)" stroke="#000000" stroke-width="0.5">
                <g id="Black-S" transform="translate(2369.270000, 10.000000)">
                    <path d="M0.83594,39.7461 C0.83594,63.0371 16.7051,78.56445 40.4844,78.56445 L65.7773,78.56445 C89.5566,78.56445 105.426,63.0371 105.426,39.7461 C105.426,16.4551 89.5566,0.9277 65.7773,0.9277 L40.4844,0.9277 C16.7051,0.9277 0.83594,16.4551 0.83594,39.7461 Z M14.9961,39.7461 C14.9961,24.6094 24.8105,15.0879 40.4844,15.0879 L65.7773,15.0879 C81.4512,15.0879 91.2656,24.6094 91.2656,39.7461 C91.2656,54.8828 81.4512,64.4043 65.7773,64.4043 L40.4844,64.4043 C24.8105,64.4043 14.9961,54.8828 14.9961,39.7461 Z" id="Shape"></path>
                </g>
                <g id="Regular-S" transform="translate(888.400000, 0.000000)">
                    <path d="M0.83594,61.7482 C0.83594,84.1115 16.5098,98.9064 40.0938,98.9064 L60.7969,98.9064 C84.332,98.9064 100.055,84.1115 100.055,61.7482 C100.055,39.3849 84.332,24.59 60.7969,24.59 L40.0938,24.59 C16.5098,24.59 0.83594,39.3849 0.83594,61.7482 Z M7.8672,61.7482 C7.8672,43.9748 21.0996,31.6212 40.0938,31.6212 L60.7969,31.6212 C79.791,31.6212 92.9746,43.9748 92.9746,61.7482 C92.9746,79.5216 79.791,91.87515 60.7969,91.87515 L40.0938,91.87515 C21.0996,91.87515 7.8672,79.5216 7.8672,61.7482 Z" id="Shape"></path>
                    <path d="M100.055,49.7461 C100.055,27.3828 84.332,12.5879 60.7969,12.5879 L40.0938,12.5879 C16.5098,12.5879 0.83594,27.3828 0.83594,49.7461 M7.8672,49.7461 C7.8672,31.9727 21.0996,19.6191 40.0938,19.6191 L60.7969,19.6191 C79.791,19.6191 92.9746,31.9727 92.9746,49.7461" id="Shape"></path>
                    <path d="M100.055,37.7482 C100.055,15.3849 84.332,0.59 60.7969,0.59 L40.0938,0.59 C16.5098,0.59 0.83594,15.3849 0.83594,37.7482 M7.8672,37.7482 C7.8672,19.9748 21.0996,7.6212 40.0938,7.6212 L60.7969,7.6212 C79.791,7.6212 92.9746,19.9748 92.9746,37.7482" id="Shape"></path>
                </g>
                <g id="Ultralight-S" transform="translate(0.968000, 15.000000)">
                    <path d="M0.83594,34.7461 C0.83594,55.9287 14.2393,69.179709 34.9624,69.179709 L60.5698,69.179709 C81.2896,69.179709 94.651,55.9287 94.651,34.7461 C94.651,13.5635 81.2896,0.3125 60.5698,0.3125 L34.9624,0.3125 C14.2393,0.3125 0.83594,13.5635 0.83594,34.7461 Z M3.05375,34.7461 C3.05375,14.5659 15.1963,2.5303 34.9624,2.5303 L60.5698,2.5303 C80.2905,2.5303 92.4751,14.5659 92.4751,34.7461 C92.4751,54.9263 80.2905,66.9619 60.5698,66.9619 L34.9624,66.9619 C15.1963,66.9619 3.05375,54.9263 3.05375,34.7461 Z" id="Shape"></path>
                </g>
            </g>
        </g>
    </g>
</svg>