<?xml version="1.0" encoding="UTF-8"?>
<svg width="3300px" height="2200px" viewBox="0 0 3300 2200" version="1.1" xmlns="http://www.w3.org/2000/svg" xmlns:xlink="http://www.w3.org/1999/xlink">
    <!-- Generator: Sketch 61.2 (89653) - https://sketch.com -->
    <title>DocumentLink</title>
    <desc>Created with Sketch.</desc>
    <g id="Page-1" stroke="none" stroke-width="1" fill="none" fill-rule="evenodd">
        <g id="DocumentLink">
            <g id="Notes">
                <rect id="artboard" fill="#FFFFFF" fill-rule="nonzero" x="0" y="0" width="3300" height="2200"></rect>
                <line x1="263" y1="292" x2="3036" y2="292" id="Path" stroke="#000000" stroke-width="0.5"></line>
                <text id="Weight/Scale-Variations" fill="#000000" font-family="Helvetica" font-size="13" font-weight="normal">
                    <tspan x="263" y="322">Weight/Scale Variations</tspan>
                </text>
                <text id="Ultralight" fill="#000000" font-family="Helvetica" font-size="13" font-weight="normal">
                    <tspan x="533.711" y="322">Ultralight</tspan>
                </text>
                <text id="Thin" fill="#000000" font-family="Helvetica" font-size="13" font-weight="normal">
                    <tspan x="843.422" y="322">Thin</tspan>
                </text>
                <text id="Light" fill="#000000" font-family="Helvetica" font-size="13" font-weight="normal">
                    <tspan x="1138.63" y="322">Light</tspan>
                </text>
                <text id="Regular" fill="#000000" font-family="Helvetica" font-size="13" font-weight="normal">
                    <tspan x="1426.84" y="322">Regular</tspan>
                </text>
                <text id="Medium" fill="#000000" font-family="Helvetica" font-size="13" font-weight="normal">
                    <tspan x="1723.06" y="322">Medium</tspan>
                </text>
                <text id="Semibold" fill="#000000" font-family="Helvetica" font-size="13" font-weight="normal">
                    <tspan x="2015.77" y="322">Semibold</tspan>
                </text>
                <text id="Bold" fill="#000000" font-family="Helvetica" font-size="13" font-weight="normal">
                    <tspan x="2326.48" y="322">Bold</tspan>
                </text>
                <text id="Heavy" fill="#000000" font-family="Helvetica" font-size="13" font-weight="normal">
                    <tspan x="2618.19" y="322">Heavy</tspan>
                </text>
                <text id="Black" fill="#000000" font-family="Helvetica" font-size="13" font-weight="normal">
                    <tspan x="2917.4" y="322">Black</tspan>
                </text>
                <line x1="263" y1="1903" x2="3036" y2="1903" id="Path" stroke="#000000" stroke-width="0.5"></line>
                <g id="Group" transform="translate(264.000000, 1918.000000)" fill="#000000" fill-rule="nonzero">
                    <path d="M8.24805,15.830078 C12.5547,15.830078 16.1387,12.25586 16.1387,7.94922 C16.1387,3.6426 12.5449,0.0684 8.23828,0.0684 C3.94141,0.0684 0.36719,3.6426 0.36719,7.94922 C0.36719,12.25586 3.95117,15.830078 8.24805,15.830078 Z M8.24805,14.345703 C4.70312,14.345703 1.87109,11.50391 1.87109,7.94922 C1.87109,4.3945 4.69336,1.5527 8.23828,1.5527 C11.793,1.5527 14.6445,4.3945 14.6445,7.94922 C14.6445,11.50391 11.8027,14.345703 8.24805,14.345703 Z M4.6543,7.94922 C4.6543,8.37891 4.95703,8.67188 5.40625,8.67188 L7.50586,8.67188 L7.50586,10.79102 C7.50586,11.23047 7.79883,11.5332 8.22852,11.5332 C8.67773,11.5332 8.9707,11.23047 8.9707,10.79102 L8.9707,8.67188 L11.0898,8.67188 C11.5293,8.67188 11.832,8.37891 11.832,7.94922 C11.832,7.50977 11.5293,7.20703 11.0898,7.20703 L8.9707,7.20703 L8.9707,5.09766 C8.9707,4.6484 8.67773,4.3457 8.22852,4.3457 C7.79883,4.3457 7.50586,4.6484 7.50586,5.09766 L7.50586,7.20703 L5.40625,7.20703 C4.95703,7.20703 4.6543,7.50977 4.6543,7.94922 Z" id="Shape"></path>
                </g>
                <g id="Group" transform="translate(282.867000, 1915.000000)" fill="#000000" fill-rule="nonzero">
                    <path d="M10.709,20.91016 C16.1582,20.91016 20.6699,16.38867 20.6699,10.94922 C20.6699,5.5 16.1484,0.9883 10.6992,0.9883 C5.25977,0.9883 0.74805,5.5 0.74805,10.94922 C0.74805,16.38867 5.26953,20.91016 10.709,20.91016 Z M10.709,19.25 C6.09961,19.25 2.41797,15.55859 2.41797,10.94922 C2.41797,6.3398 6.08984,2.6484 10.6992,2.6484 C15.3086,2.6484 19.0098,6.3398 19.0098,10.94922 C19.0098,15.55859 15.3184,19.25 10.709,19.25 Z M6.17773,10.94922 C6.17773,11.42773 6.50977,11.75 7.00781,11.75 L9.8789,11.75 L9.8789,14.63086 C9.8789,15.11914 10.2109,15.46094 10.6895,15.46094 C11.1777,15.46094 11.5195,15.12891 11.5195,14.63086 L11.5195,11.75 L14.4004,11.75 C14.8887,11.75 15.2305,11.42773 15.2305,10.94922 C15.2305,10.46094 14.8887,10.11914 14.4004,10.11914 L11.5195,10.11914 L11.5195,7.248 C11.5195,6.75 11.1777,6.4082 10.6895,6.4082 C10.2109,6.4082 9.8789,6.75 9.8789,7.248 L9.8789,10.11914 L7.00781,10.11914 C6.50977,10.11914 6.17773,10.46094 6.17773,10.94922 Z" id="Shape"></path>
                </g>
                <g id="Group" transform="translate(307.646000, 1913.000000)" fill="#000000" fill-rule="nonzero">
                    <path d="M12.9707,25.66406 C19.9336,25.66406 25.6953,19.9023438 25.6953,12.94922 C25.6953,5.9863 19.9238,0.2246 12.9609,0.2246 C6.00781,0.2246 0.25586,5.9863 0.25586,12.94922 C0.25586,19.9023438 6.01758,25.66406 12.9707,25.66406 Z M12.9707,23.84766 C6.93555,23.84766 2.08203,18.98438 2.08203,12.94922 C2.08203,6.9043 6.92578,2.0508 12.9609,2.0508 C19.0059,2.0508 23.8691,6.9043 23.8691,12.94922 C23.8691,18.98438 19.0156,23.84766 12.9707,23.84766 Z M7.19922,12.94922 C7.19922,13.4668 7.57031,13.82812 8.1172,13.82812 L12.0625,13.82812 L12.0625,17.7832 C12.0625,18.32031 12.4336,18.70117 12.9512,18.70117 C13.4883,18.70117 13.8594,18.33008 13.8594,17.7832 L13.8594,13.82812 L17.8145,13.82812 C18.3516,13.82812 18.7324,13.4668 18.7324,12.94922 C18.7324,12.40234 18.3613,12.03125 17.8145,12.03125 L13.8594,12.03125 L13.8594,8.0859 C13.8594,7.5391 13.4883,7.1582 12.9512,7.1582 C12.4336,7.1582 12.0625,7.5391 12.0625,8.0859 L12.0625,12.03125 L8.1172,12.03125 C7.57031,12.03125 7.19922,12.40234 7.19922,12.94922 Z" id="Shape"></path>
                </g>
                <text id="Design-Variations" fill="#000000" font-family="Helvetica" font-size="13" font-weight="normal">
                    <tspan x="263" y="1953">Design Variations</tspan>
                </text>
                <text id="Symbols-are-supported-in-up-to-nine-weights-and-three-scales." fill="#000000" font-family="Helvetica" font-size="13" font-weight="normal">
                    <tspan x="263" y="1971">Symbols are supported in up to nine weights and three scales.</tspan>
                </text>
                <text id="For-optimal-layout-with-text-and-other-symbols,-vertically-align" fill="#000000" font-family="Helvetica" font-size="13" font-weight="normal">
                    <tspan x="263" y="1989">For optimal layout with text and other symbols, vertically align</tspan>
                </text>
                <text id="symbols-with-the-adjacent-text." fill="#000000" font-family="Helvetica" font-size="13" font-weight="normal">
                    <tspan x="263" y="2007">symbols with the adjacent text.</tspan>
                </text>
                <line x1="776" y1="1919" x2="776" y2="1933" id="Path" stroke="#00AEEF" stroke-width="0.5"></line>
                <g id="Group" transform="translate(778.000000, 1918.000000)" fill="#000000" fill-rule="nonzero">
                    <path d="M1.31055,15.15625 C1.82812,15.15625 2.08203,14.9609375 2.26758,14.414062 L3.52734,10.9668 L9.2891,10.9668 L10.5488,14.414062 C10.7344,14.9609375 10.9883,15.15625 11.4961,15.15625 C12.0137,15.15625 12.3457,14.84375 12.3457,14.355469 C12.3457,14.189453 12.3164,14.033203 12.2383,13.82812 L7.6582,1.6309 C7.43359,1.0352 7.0332,0.7324 6.4082,0.7324 C5.80273,0.7324 5.39258,1.0254 5.17773,1.6211 L0.59766,13.83789 C0.51953,14.042969 0.49023,14.199219 0.49023,14.365234 C0.49023,14.853516 0.80273,15.15625 1.31055,15.15625 Z M4.00586,9.48242 L6.37891,2.9102 L6.42773,2.9102 L8.8008,9.48242 L4.00586,9.48242 Z" id="Shape"></path>
                </g>
                <line x1="793.197" y1="1919" x2="793.197" y2="1933" id="Path" stroke="#00AEEF" stroke-width="0.5"></line>
                <text id="Margins" fill="#000000" font-family="Helvetica" font-size="13" font-weight="normal">
                    <tspan x="776" y="1953">Margins</tspan>
                </text>
                <text id="Leading-and-trailing-margins-on-the-left-and-right-side-of-each-symbol" fill="#000000" font-family="Helvetica" font-size="13" font-weight="normal">
                    <tspan x="776" y="1971">Leading and trailing margins on the left and right side of each symbol</tspan>
                </text>
                <text id="can-be-adjusted-by-modifying-the-x-location-of-the-margin-guidelines." fill="#000000" font-family="Helvetica" font-size="13" font-weight="normal">
                    <tspan x="776" y="1989">can be adjusted by modifying the x-location of the margin guidelines.</tspan>
                </text>
                <text id="Modifications-are-automatically-applied-proportionally-to-all" fill="#000000" font-family="Helvetica" font-size="13" font-weight="normal">
                    <tspan x="776" y="2007">Modifications are automatically applied proportionally to all</tspan>
                </text>
                <text id="scales-and-weights." fill="#000000" font-family="Helvetica" font-size="13" font-weight="normal">
                    <tspan x="776" y="2025">scales and weights.</tspan>
                </text>
                <g id="Group" transform="translate(1291.000000, 1914.000000)" fill="#000000" fill-rule="nonzero">
                    <path d="M0.8418,20.86523 L2.54102,22.57422 C3.40039,23.44336 4.38672,23.38477 5.31445,22.35938 L16.0078,10.57227 L15.041,9.5957 L4.42578,21.27539 C4.07422,21.67578 3.74219,21.77344 3.27344,21.30469 L2.10156,20.14258 C1.63281,19.683594 1.74023,19.341797 2.14062,18.9804688 L13.6152,8.1797 L12.6387,7.2129 L1.04688,18.101562 C0.06055,19.0195312 -0.01758,19.996094 0.8418,20.86523 Z M7.25781,2.6719 C6.83789,3.082 6.80859,3.6582 7.04297,4.0488 C7.27734,4.4102 7.73633,4.6445 8.3809,4.4785 C9.8457,4.1367 11.3691,4.0781 12.7949,5.0156 L12.209,6.4707 C11.8672,7.3008 12.043,7.8867 12.5801,8.4336 L14.875,10.74805 C15.3633,11.23633 15.7734,11.25586 16.3398,11.1582 L17.4043,10.96289 L18.0684,11.63672 L18.0293,12.19336 C17.9902,12.69141 18.1172,13.07227 18.6055,13.55078 L19.3672,14.29297 C19.8457,14.77148 20.4609,14.80078 20.9297,14.33203 L23.8398,11.41211 C24.3086,10.94336 24.2891,10.34766 23.8105,9.86914 L23.0391,9.10742 C22.5605,8.6289 22.1895,8.4727 21.7109,8.5117 L21.1348,8.5605 L20.4902,7.9258 L20.7344,6.8027 C20.8613,6.2363 20.7051,5.7969 20.1191,5.2109 L17.9219,3.0234 C14.582,-0.2969 10.1484,-0.2188 7.25781,2.6719 Z M8.752,3.043 C11.1836,1.2656 14.4746,1.5684 16.7012,3.7949 L19.1328,6.207 C19.3672,6.4414 19.4062,6.627 19.3379,6.9688 L19.0156,8.4531 L20.5195,9.9375 L21.5059,9.87891 C21.7598,9.86914 21.8379,9.88867 22.0332,10.08398 L22.6094,10.66016 L20.168,13.10156 L19.5918,12.52539 C19.3965,12.33008 19.3672,12.25195 19.377,11.98828 L19.4453,11.01172 L17.9512,9.52734 L16.4277,9.78125 C16.1055,9.84961 15.959,9.82031 15.7148,9.58594 L13.7129,7.584 C13.459,7.3496 13.4297,7.1836 13.5859,6.8125 L14.4648,4.7227 C12.9023,3.2676 10.8711,2.6426 8.8398,3.2383 C8.6836,3.2773 8.625,3.1504 8.752,3.043 Z" id="Shape"></path>
                </g>
                <text id="Exporting" fill="#000000" font-family="Helvetica" font-size="13" font-weight="normal">
                    <tspan x="1289" y="1953">Exporting</tspan>
                </text>
                <text id="Symbols-should-be-outlined-when-exporting-to-ensure-the" fill="#000000" font-family="Helvetica" font-size="13" font-weight="normal">
                    <tspan x="1289" y="1971">Symbols should be outlined when exporting to ensure the</tspan>
                </text>
                <text id="design-is-preserved-when-submitting-to-Xcode." fill="#000000" font-family="Helvetica" font-size="13" font-weight="normal">
                    <tspan x="1289" y="1989">design is preserved when submitting to Xcode.</tspan>
                </text>
                <text id="template-version" fill="#000000" font-family="Helvetica" font-size="13" font-weight="normal">
                    <tspan x="2952" y="1933">Template v.4.0</tspan>
                </text>
                <text id="Requires-Xcode-14-or-greater" fill="#000000" font-family="Helvetica" font-size="13" font-weight="normal">
                    <tspan x="2865" y="1951">Requires Xcode 14 or greater</tspan>
                </text>
                <text id="descriptive-name" fill="#000000" font-family="Helvetica" font-size="13" font-weight="normal">
                    <tspan x="2868" y="1969">Generated from doc.plaintext</tspan>
                </text>
                <text id="Typeset-at-100-points" fill="#000000" font-family="Helvetica" font-size="13" font-weight="normal">
                    <tspan x="2912" y="1987">Typeset at 100 points</tspan>
                </text>
                <text id="Small" fill="#000000" font-family="Helvetica" font-size="13" font-weight="normal">
                    <tspan x="263" y="726">Small</tspan>
                </text>
                <text id="Medium" fill="#000000" font-family="Helvetica" font-size="13" font-weight="normal">
                    <tspan x="263" y="1156">Medium</tspan>
                </text>
                <text id="Large" fill="#000000" font-family="Helvetica" font-size="13" font-weight="normal">
                    <tspan x="263" y="1586">Large</tspan>
                </text>
            </g>
            <g id="Guides" transform="translate(263.000000, 600.000000)">
                <g id="H-reference" transform="translate(76.000000, 25.000000)" fill="#27AAE1" fill-rule="nonzero">
                    <path d="M0.993654,71 L3.63775,71 L29.3281,3.8677 L30.0303,3.8677 L30.0303,0.541 L28.1226,0.541 L0.993654,71 Z M11.6885,46.5201 L46.9815,46.5201 L46.2315,44.2715 L12.4385,44.2715 L11.6885,46.5201 Z M55.1196,71 L57.7637,71 L30.6382,0.541 L29.4326,0.541 L29.4326,3.8677 L55.1196,71 Z" id="Shape"></path>
                </g>
                <line x1="0" y1="96" x2="2773" y2="96" id="Baseline-S" stroke="#27AAE1" stroke-width="0.5"></line>
                <line x1="0" y1="25.541" x2="2773" y2="25.541" id="Capline-S" stroke="#27AAE1" stroke-width="0.5"></line>
                <g id="H-reference" transform="translate(76.000000, 455.000000)" fill="#27AAE1" fill-rule="nonzero">
                    <path d="M0.993654,71 L3.63775,71 L29.3281,3.8677 L30.0303,3.8677 L30.0303,0.541 L28.1226,0.541 L0.993654,71 Z M11.6885,46.5201 L46.9815,46.5201 L46.2315,44.2715 L12.4385,44.2715 L11.6885,46.5201 Z M55.1196,71 L57.7637,71 L30.6382,0.541 L29.4326,0.541 L29.4326,3.8677 L55.1196,71 Z" id="Shape"></path>
                </g>
                <line x1="0" y1="526" x2="2773" y2="526" id="Baseline-M" stroke="#27AAE1" stroke-width="0.5"></line>
                <line x1="0" y1="455.54" x2="2773" y2="455.54" id="Capline-M" stroke="#27AAE1" stroke-width="0.5"></line>
                <g id="H-reference" transform="translate(76.000000, 885.000000)" fill="#27AAE1" fill-rule="nonzero">
                    <path d="M0.993654,71 L3.63775,71 L29.3281,3.8677 L30.0303,3.8677 L30.0303,0.541 L28.1226,0.541 L0.993654,71 Z M11.6885,46.5201 L46.9815,46.5201 L46.2315,44.2715 L12.4385,44.2715 L11.6885,46.5201 Z M55.1196,71 L57.7637,71 L30.6382,0.541 L29.4326,0.541 L29.4326,3.8677 L55.1196,71 Z" id="Shape"></path>
                </g>
                <line x1="0" y1="956" x2="2773" y2="956" id="Baseline-L" stroke="#27AAE1" stroke-width="0.5"></line>
                <line x1="0" y1="885.54" x2="2773" y2="885.54" id="Capline-L" stroke="#27AAE1" stroke-width="0.5"></line>
                <line x1="256.288" y1="0.785" x2="256.288" y2="120.121" id="left-margin-Ultralight-S" stroke="#00AEEF" stroke-width="0.5"></line>
                <line x1="337.134" y1="0.785" x2="337.134" y2="120.121" id="right-margin-Ultralight-S" stroke="#00AEEF" stroke-width="0.5"></line>
                <line x1="1144.56" y1="0.785" x2="1144.56" y2="120.121" id="left-margin-Regular-S" stroke="#00AEEF" stroke-width="0.5"></line>
                <line x1="1229.13" y1="0.785" x2="1229.13" y2="120.121" id="right-margin-Regular-S" stroke="#00AEEF" stroke-width="0.5"></line>
                <line x1="2624.7" y1="0.785" x2="2624.7" y2="120.121" id="left-margin-Black-S" stroke="#00AEEF" stroke-width="0.5"></line>
                <line x1="2716.1" y1="0.785" x2="2716.1" y2="120.121" id="right-margin-Black-S" stroke="#00AEEF" stroke-width="0.5"></line>
            </g>
            <g id="Symbols" transform="translate(528.000000, 616.000000)" fill="#000000" fill-rule="nonzero">
                <g id="Black-S" transform="translate(2368.700000, 0.000000)">
                    <path d="M0.76562,71.91992 C0.76562,81.49023 6.4297,87.1543 16,87.1543 L57.4062,87.1543 C66.9766,87.1543 72.6406,81.49023 72.6406,71.91992 L72.6406,15.6699 C72.6406,6.0996 66.9766,0.4355 57.4062,0.4355 L16,0.4355 C6.4297,0.4355 0.76562,6.0996 0.76562,15.6699 L0.76562,71.91992 Z M14.9258,69.67383 L14.9258,17.916 C14.9258,15.6699 15.8047,14.5957 18.2461,14.5957 L55.1602,14.5957 C57.6016,14.5957 58.4805,15.6699 58.4805,17.916 L58.4805,69.67383 C58.4805,71.91992 57.6016,72.99414 55.1602,72.99414 L18.2461,72.99414 C15.8047,72.99414 14.9258,71.91992 14.9258,69.67383 Z" id="Shape"></path>
                    <path d="M53.4208002,28.1445 C48.4891002,23.2129 42.3368002,23.7988 36.6727002,29.3164 L32.9618002,32.8809 C27.2001002,38.4473 26.8583002,44.9414 31.8388002,49.6777 C32.8153002,50.6055 34.1337002,51.6309 35.0126002,52.2656 C36.3798002,51.1426 37.8934002,49.1406 38.2352002,48.0664 C37.6005002,47.6758 36.1845002,46.6992 35.5009002,46.0156 C32.8641002,43.3789 33.2548002,39.9121 36.7216002,36.4941 L40.1395002,33.125 C43.6552002,29.707 47.0731002,29.2188 49.7098002,31.8066 C52.3466002,34.3945 51.9071002,37.959 48.4403002,41.377 L46.7802002,42.9883 C47.5614002,44.0625 47.9520002,47.6758 47.4149002,49.7754 L52.2489002,44.9414 C57.8641002,39.3262 58.3036002,33.0273 53.4208002,28.1445 Z M20.5106002,61.4453 C25.4423002,66.377 31.5946002,65.791 37.2587002,60.2734 L40.9696002,56.709 C46.7313002,51.1426 47.0731002,44.6484 42.0927002,39.9121 C41.1161002,38.9844 39.7977002,37.959 38.9188002,37.3242 C37.5516002,38.4473 36.0380002,40.4492 35.6962002,41.5234 C36.3309002,41.9141 37.7470002,42.8906 38.4305002,43.5742 C41.0673002,46.2109 40.6766002,49.6777 37.2098002,53.0957 L33.7919002,56.4648 C30.2762002,59.8828 26.8583002,60.3711 24.2216002,57.7832 C21.5848002,55.1953 22.0243002,51.6309 25.4911002,48.2129 L27.1512002,46.6016 C26.3700002,45.5273 25.9794002,41.9141 26.5165002,39.8145 L21.6825002,44.6484 C16.0673002,50.2637 15.6278002,56.5625 20.5106002,61.4453 Z" id="Shape"></path>
                </g>
                <g id="Regular-S" transform="translate(888.560000, 2.000000)">
                    <path d="M0.76562,70.45703 C0.76562,78.80664 4.8184,82.9082 13.0215,82.9082 L53.5,82.9082 C61.7031,82.9082 65.8047,78.80664 65.8047,70.45703 L65.8047,13.0352 C65.8047,4.7344 61.7031,0.584 53.5,0.584 L13.0215,0.584 C4.8184,0.584 0.76562,4.7344 0.76562,13.0352 L0.76562,70.45703 Z M5.76562,72.6026095 L5.76562,10.565423 C5.76562,6.75429303 7.82219236,4.584 11.8298247,4.584 L54.7541174,4.584 C58.7090476,4.584 60.76562,6.75429303 60.76562,10.565423 L60.76562,72.6026095 C60.76562,76.4137612 58.7090476,78.584 54.7541174,78.584 L11.8298247,78.584 C7.82219236,78.584 5.76562,76.4137612 5.76562,72.6026095 Z" id="Shape"></path>
                    <path d="M51.7406995,24.5332 C46.8578995,19.6504 40.7054995,20.041 34.8949995,25.9004 L29.6703995,31.0762 C23.7621995,36.9844 23.2250995,43.0879 28.2054995,48.0684 C29.3773995,49.3379 30.8422995,50.2168 31.7699995,50.4121 C32.9418995,49.582 34.3578995,48.0195 35.0414995,46.5547 C33.3324995,46.2617 32.1117995,45.6758 31.3793995,44.9434 C28.4496995,41.9648 29.0355995,38.0586 32.9906995,34.1035 L37.9222995,29.123 C41.7308995,25.3633 45.6371995,24.8262 48.6156995,27.7559 C51.5453995,30.6855 51.1547995,34.5918 47.1996995,38.4492 L43.8793995,41.7207 C44.6117995,43.332 44.6605995,45.7734 44.0258995,47.7754 L50.4711995,41.4277 C56.2328995,35.6172 56.7211995,29.5137 51.7406995,24.5332 Z M15.5101995,60.9102 C20.3929995,65.793 26.5453995,65.3535 32.3558995,59.543 L37.5316995,54.3672 C43.4887995,48.459 43.9769995,42.3066 38.9965995,37.3262 C37.8246995,36.1055 36.4086995,35.2266 35.4808995,35.0312 C34.3090995,35.8613 32.8441995,37.4238 32.2094995,38.8398 C33.8695995,39.1816 35.1390995,39.7676 35.8715995,40.4512 C38.8011995,43.4785 38.2152995,47.3848 34.2601995,51.291 L29.3285995,56.2715 C25.4711995,60.0801 21.6137995,60.5684 18.6351995,57.6875 C15.6566995,54.7578 16.0961995,50.8027 20.0023995,46.9941 L23.3226995,43.7227 C22.6390995,42.1113 22.5414995,39.6699 23.1761995,37.668 L16.7797995,44.0156 C10.9691995,49.8262 10.4808995,55.9297 15.5101995,60.9102 Z" id="Shape"></path>
                </g>
                <g id="Ultralight-S" transform="translate(0.288000, 3.000000)">
                    <path d="M0.76562,71.1826 C0.76562,77.71582 4.228,81.18165 10.751,81.18165 L52.0923,81.18165 C58.6607,81.18165 62.0811,77.71582 62.0811,71.1826 L62.0811,10.4912 C62.0811,3.9614 58.6607,0.4922 52.0923,0.4922 L10.751,0.4922 C4.228,0.4922 0.76562,3.9614 0.76562,10.4912 L0.76562,71.1826 Z M2.9834,71.08495 L2.9834,10.5889 C2.9834,5.3931 5.6597,2.71 10.8692,2.71 L51.9775,2.71 C57.1836,2.71 59.9053,5.3931 59.9053,10.5889 L59.9053,71.08495 C59.9053,76.280735 57.1836,78.96384 51.9775,78.96384 L10.8692,78.96384 C5.6597,78.96384 2.9834,76.280735 2.9834,71.08495 Z" id="Shape"></path>
                    <path d="M49.1301,24.0327 C44.9284,19.9219 39.6843,20.1763 35.2814,24.5825 L27.196,32.5283 C22.7409,36.938 22.5217,42.3603 26.7302,46.478 C28.6286,48.3379 30.3659,49.2622 32.2472,49.4575 C32.8288,49.0361 33.5182,48.3364 33.7931,47.4165 C31.7209,47.4868 30.0007,46.81 28.2238,44.9424 C24.9309,41.8276 25.0627,37.5581 28.5637,34.1025 L36.8102,25.9434 C40.2555,22.4107 44.4343,22.3276 47.5944,25.5298 C50.842,28.7319 50.8146,32.9561 47.2682,36.314 L40.5422,43.1274 C40.6843,44.0122 40.5969,45.1821 39.9621,46.5938 L48.6325,37.9302 C53.0773,33.4819 53.3386,28.1504 49.1301,24.0327 Z M14.0348,59.1382 C18.2819,63.249 23.4807,62.9912 27.8835,58.5884 L35.9655,50.6426 C40.424,46.1875 40.6398,40.8071 36.4313,36.6895 C34.5329,34.833 32.799,33.9087 30.9177,33.7134 C30.3815,34.1348 29.6433,34.8345 29.3718,35.751 C31.4406,35.6841 33.2097,36.3609 34.9411,38.1797 C38.2341,41.2979 38.1476,45.6128 34.6012,49.0195 L26.3547,57.2241 C22.9059,60.7602 18.7307,60.8398 15.5705,57.5957 C12.3195,54.439 12.3957,50.2114 15.9387,46.8115 L22.6193,40.0435 C22.526,39.1587 22.61,37.9888 23.2448,36.5771 L14.5778,45.2407 C10.0842,49.6435 9.82290002,55.0205 14.0348,59.1382 Z" id="Shape"></path>
                </g>
            </g>
        </g>
    </g>
</svg>