<?xml version="1.0" encoding="UTF-8"?>
<svg width="3300px" height="2200px" viewBox="0 0 3300 2200" version="1.1" xmlns="http://www.w3.org/2000/svg" xmlns:xlink="http://www.w3.org/1999/xlink">
    <!-- Generator: Sketch 61.2 (89653) - https://sketch.com -->
    <title>list.bullet.rectangle</title>
    <desc>Created with Sketch.</desc>
    <g id="Page-1" stroke="none" stroke-width="1" fill="none" fill-rule="evenodd">
        <g id="list.bullet.rectangle">
            <g id="Notes">
                <rect id="artboard" fill="#FFFFFF" fill-rule="nonzero" x="0" y="0" width="3300" height="2200"></rect>
                <line x1="263" y1="292" x2="3036" y2="292" id="Path" stroke="#000000" stroke-width="0.5"></line>
                <text id="Weight/Scale-Variations" fill="#000000" font-family="Helvetica-Bold, Helvetica" font-size="13" font-weight="bold">
                    <tspan x="263" y="322">Weight/Scale Variations</tspan>
                </text>
                <text id="Ultralight" fill="#000000" font-family="Helvetica" font-size="13" font-weight="normal">
                    <tspan x="533.711" y="322">Ultralight</tspan>
                </text>
                <text id="Thin" fill="#000000" font-family="Helvetica" font-size="13" font-weight="normal">
                    <tspan x="843.422" y="322">Thin</tspan>
                </text>
                <text id="Light" fill="#000000" font-family="Helvetica" font-size="13" font-weight="normal">
                    <tspan x="1138.63" y="322">Light</tspan>
                </text>
                <text id="Regular" fill="#000000" font-family="Helvetica" font-size="13" font-weight="normal">
                    <tspan x="1426.84" y="322">Regular</tspan>
                </text>
                <text id="Medium" fill="#000000" font-family="Helvetica" font-size="13" font-weight="normal">
                    <tspan x="1723.06" y="322">Medium</tspan>
                </text>
                <text id="Semibold" fill="#000000" font-family="Helvetica" font-size="13" font-weight="normal">
                    <tspan x="2015.77" y="322">Semibold</tspan>
                </text>
                <text id="Bold" fill="#000000" font-family="Helvetica" font-size="13" font-weight="normal">
                    <tspan x="2326.48" y="322">Bold</tspan>
                </text>
                <text id="Heavy" fill="#000000" font-family="Helvetica" font-size="13" font-weight="normal">
                    <tspan x="2618.19" y="322">Heavy</tspan>
                </text>
                <text id="Black" fill="#000000" font-family="Helvetica" font-size="13" font-weight="normal">
                    <tspan x="2917.4" y="322">Black</tspan>
                </text>
                <line x1="263" y1="1903" x2="3036" y2="1903" id="Path" stroke="#000000" stroke-width="0.5"></line>
                <g id="Group" transform="translate(264.000000, 1918.000000)" fill="#000000" fill-rule="nonzero">
                    <path d="M8.24805,15.830078 C12.5547,15.830078 16.1387,12.25586 16.1387,7.94922 C16.1387,3.6426 12.5449,0.0684 8.23828,0.0684 C3.94141,0.0684 0.36719,3.6426 0.36719,7.94922 C0.36719,12.25586 3.95117,15.830078 8.24805,15.830078 Z M8.24805,14.345703 C4.70312,14.345703 1.87109,11.50391 1.87109,7.94922 C1.87109,4.3945 4.69336,1.5527 8.23828,1.5527 C11.793,1.5527 14.6348,4.3945 14.6445252,7.94922 C14.6543,11.50391 11.8027,14.345703 8.24805,14.345703 Z M5.39648,8.68164 L7.50586,8.68164 L7.50586,10.80078 C7.50586,11.24023 7.79883,11.54297 8.22852,11.54297 C8.67773,11.54297 8.9707,11.24023 8.9707,10.80078 L8.9707,8.68164 L11.0996,8.68164 C11.5391,8.68164 11.8418,8.38867 11.8418,7.95898 C11.8418,7.51953 11.5391,7.2168 11.0996,7.2168 L8.9707,7.2168 L8.9707,5.10742 C8.9707,4.6582 8.67773,4.3555 8.22852,4.3555 C7.79883,4.3555 7.50586,4.6582 7.50586,5.10742 L7.50586,7.2168 L5.39648,7.2168 C4.94727,7.2168 4.64453,7.51953 4.64453,7.95898 C4.64453,8.38867 4.94727,8.68164 5.39648,8.68164 Z" id="Shape"></path>
                </g>
                <g id="Group" transform="translate(282.506000, 1915.000000)" fill="#000000" fill-rule="nonzero">
                    <path d="M10.709,20.91016 C16.1582,20.91016 20.6699,16.38867 20.6699,10.94922 C20.6699,5.5 16.1484,0.9883 10.6992,0.9883 C5.25977,0.9883 0.74805,5.5 0.74805,10.94922 C0.74805,16.38867 5.26953,20.91016 10.709,20.91016 Z M10.709,19.25 C6.09961,19.25 2.41797,15.55859 2.41797,10.94922 C2.41797,6.3398 6.08984,2.6484 10.6992,2.6484 C15.3086,2.6484 19,6.3398 19.009819,10.94922 C19.0195,15.55859 15.3184,19.25 10.709,19.25 Z M6.98828,11.76953 L9.8789,11.76953 L9.8789,14.67969 C9.8789,15.16797 10.2109,15.5 10.6895,15.5 C11.1777,15.5 11.5195,15.16797 11.5195,14.67969 L11.5195,11.76953 L14.4297,11.76953 C14.918,11.76953 15.25,11.4375 15.25,10.95898 C15.25,10.4707 14.918,10.12891 14.4297,10.12891 L11.5195,10.12891 L11.5195,7.2383 C11.5195,6.7305 11.1777,6.3984 10.6895,6.3984 C10.2109,6.3984 9.8789,6.7402 9.8789,7.2383 L9.8789,10.12891 L6.98828,10.12891 C6.48047,10.12891 6.14844,10.4707 6.14844,10.95898 C6.14844,11.4375 6.49023,11.76953 6.98828,11.76953 Z" id="Shape"></path>
                </g>
                <g id="Group" transform="translate(306.924000, 1913.000000)" fill="#000000" fill-rule="nonzero">
                    <path d="M12.9707,25.66406 C19.9336,25.66406 25.6953,19.9023438 25.6953,12.94922 C25.6953,5.9863 19.9238,0.2246 12.9609,0.2246 C6.00781,0.2246 0.25586,5.9863 0.25586,12.94922 C0.25586,19.9023438 6.01758,25.66406 12.9707,25.66406 Z M12.9707,23.84766 C6.93555,23.84766 2.08203,18.98438 2.08203,12.94922 C2.08203,6.9043 6.92578,2.0508 12.9609,2.0508 C19.0059,2.0508 23.8594,6.9043 23.8691148,12.94922 C23.8789,18.98438 19.0156,23.84766 12.9707,23.84766 Z M8.0586,13.85742 L12.0625,13.85742 L12.0625,17.87109 C12.0625,18.4082 12.4336,18.7793 12.9512,18.7793 C13.4883,18.7793 13.8594,18.4082 13.8594,17.87109 L13.8594,13.85742 L17.8828,13.85742 C18.4102,13.85742 18.791,13.48633 18.791,12.96875 C18.791,12.43164 18.4199,12.05078 17.8828,12.05078 L13.8594,12.05078 L13.8594,8.0469 C13.8594,7.4902 13.4883,7.1191 12.9512,7.1191 C12.4336,7.1191 12.0625,7.5 12.0625,8.0469 L12.0625,12.05078 L8.0586,12.05078 C7.50195,12.05078 7.13086,12.43164 7.13086,12.96875 C7.13086,13.48633 7.51172,13.85742 8.0586,13.85742 Z" id="Shape"></path>
                </g>
                <text id="Design-Variations" fill="#000000" font-family="Helvetica-Bold, Helvetica" font-size="13" font-weight="bold">
                    <tspan x="263" y="1953">Design Variations</tspan>
                </text>
                <text id="Symbols-are-supported-in-up-to-nine-weights-and-three-scales." fill="#000000" font-family="Helvetica" font-size="13" font-weight="normal">
                    <tspan x="263" y="1971">Symbols are supported in up to nine weights and three scales.</tspan>
                </text>
                <text id="For-optimal-layout-with-text-and-other-symbols,-vertically-align" fill="#000000" font-family="Helvetica" font-size="13" font-weight="normal">
                    <tspan x="263" y="1989">For optimal layout with text and other symbols, vertically align</tspan>
                </text>
                <text id="symbols-with-the-adjacent-text." fill="#000000" font-family="Helvetica" font-size="13" font-weight="normal">
                    <tspan x="263" y="2007">symbols with the adjacent text.</tspan>
                </text>
                <line x1="776" y1="1919" x2="776" y2="1933" id="Path" stroke="#00AEEF" stroke-width="0.5"></line>
                <g id="Group" transform="translate(778.000000, 1918.000000)" fill="#000000" fill-rule="nonzero">
                    <path d="M1.31055,15.126953 C1.82812,15.126953 2.08203,14.9316406 2.26758,14.394531 L3.52734,10.9375 L9.2891,10.9375 L10.5488,14.394531 C10.7344,14.9316406 10.9883,15.126953 11.4961,15.126953 C12.0137,15.126953 12.3457,14.814453 12.3457,14.326172 C12.3457,14.160156 12.3164,14.013672 12.2383,13.79883 L7.6582,1.6113 C7.43359,1.0059 7.0332,0.7129 6.4082,0.7129 C5.80273,0.7129 5.39258,1.0059 5.17773,1.6016 L0.59766,13.80859 C0.51953,14.023438 0.49023,14.169922 0.49023,14.335938 C0.49023,14.824219 0.80273,15.126953 1.31055,15.126953 Z M4.00586,9.46289 L6.37891,2.8906 L6.42773,2.8906 L8.8008,9.46289 L4.00586,9.46289 Z" id="Shape"></path>
                </g>
                <line x1="792.836" y1="1919" x2="792.836" y2="1933" id="Path" stroke="#00AEEF" stroke-width="0.5"></line>
                <text id="Margins" fill="#000000" font-family="Helvetica-Bold, Helvetica" font-size="13" font-weight="bold">
                    <tspan x="776" y="1953">Margins</tspan>
                </text>
                <text id="Leading-and-trailing-margins-on-the-left-and-right-side-of-each-symbol" fill="#000000" font-family="Helvetica" font-size="13" font-weight="normal">
                    <tspan x="776" y="1971">Leading and trailing margins on the left and right side of each symbol</tspan>
                </text>
                <text id="can-be-adjusted-by-modifying-the-x-location-of-the-margin-guidelines." fill="#000000" font-family="Helvetica" font-size="13" font-weight="normal">
                    <tspan x="776" y="1989">can be adjusted by modifying the x-location of the margin guidelines.</tspan>
                </text>
                <text id="Modifications-are-automatically-applied-proportionally-to-all" fill="#000000" font-family="Helvetica" font-size="13" font-weight="normal">
                    <tspan x="776" y="2007">Modifications are automatically applied proportionally to all</tspan>
                </text>
                <text id="scales-and-weights." fill="#000000" font-family="Helvetica" font-size="13" font-weight="normal">
                    <tspan x="776" y="2025">scales and weights.</tspan>
                </text>
                <g id="Group" transform="translate(1291.000000, 1914.000000)" fill="#000000" fill-rule="nonzero">
                    <path d="M0.8418,20.86523 L2.54102,22.57422 C3.40039,23.44336 4.38672,23.38477 5.31445,22.35938 L15.4902,11.14844 C15.7539,11.23633 16.0273,11.2168 16.3398,11.1582 L17.4043,10.96289 L18.0684,11.63672 L18.0293,12.19336 C17.9902,12.69141 18.1172,13.07227 18.6055,13.55078 L19.3672,14.29297 C19.8457,14.77148 20.4609,14.80078 20.9297,14.33203 L23.8398,11.41211 C24.3086,10.94336 24.2891,10.34766 23.8105,9.86914 L23.0391,9.10742 C22.5605,8.6289 22.1895,8.4727 21.7109,8.5117 L21.1348,8.5605 L20.4902,7.9258 L20.7344,6.8027 C20.8613,6.2363 20.7051,5.7969 20.1191,5.2109 L17.9219,3.0234 C14.582,-0.2969 10.1484,-0.2188 7.25781,2.6719 C6.83789,3.082 6.80859,3.6582 7.04297,4.0488 C7.27734,4.4102 7.73633,4.6445 8.3809,4.4785 C9.8457,4.1367 11.3691,4.0781 12.7949,5.0156 L12.209,6.4707 C12.0137,6.9492 11.9844,7.3496 12.1113,7.7109 L1.04688,18.101562 C0.06055,19.0195312 -0.01758,19.996094 0.8418,20.86523 Z M8.752,3.043 C11.1836,1.2656 14.4746,1.5684 16.7012,3.7949 L19.1328,6.207 C19.3672,6.4414 19.4062,6.627 19.3379,6.9688 L19.0156,8.4531 L20.5195,9.9375 L21.5059,9.87891 C21.7598,9.86914 21.8379,9.88867 22.0332,10.08398 L22.6094,10.66016 L20.168,13.10156 L19.5918,12.52539 C19.3965,12.33008 19.3672,12.25195 19.377,11.98828 L19.4453,11.01172 L17.9512,9.52734 L16.4277,9.78125 C16.1055,9.84961 15.959,9.82031 15.7148,9.58594 L13.7129,7.584 C13.459,7.3496 13.4297,7.1836 13.5859,6.8125 L14.4648,4.7227 C12.9023,3.2676 10.8711,2.6426 8.8398,3.2383 C8.6836,3.2773 8.625,3.1504 8.752,3.043 Z M3.27344,21.3047 L2.10156,20.14258 C1.63281,19.683594 1.74023,19.341797 2.14062,18.9804688 L12.9512,8.8047 L14.416,10.28906 L4.42578,21.27539 C4.07422,21.67578 3.74219,21.77344 3.27344,21.3047 Z" id="Shape"></path>
                </g>
                <text id="Exporting" fill="#000000" font-family="Helvetica-Bold, Helvetica" font-size="13" font-weight="bold">
                    <tspan x="1289" y="1953">Exporting</tspan>
                </text>
                <text id="Symbols-should-be-outlined-when-exporting-to-ensure-the" fill="#000000" font-family="Helvetica" font-size="13" font-weight="normal">
                    <tspan x="1289" y="1971">Symbols should be outlined when exporting to ensure the</tspan>
                </text>
                <text id="design-is-preserved-when-submitting-to-Xcode." fill="#000000" font-family="Helvetica" font-size="13" font-weight="normal">
                    <tspan x="1289" y="1989">design is preserved when submitting to Xcode.</tspan>
                </text>
                <text id="template-version" fill="#000000" font-family="Helvetica" font-size="13" font-weight="normal">
                    <tspan x="2952" y="1933">Template v.2.0</tspan>
                </text>
                <text id="Requires-Xcode-12-or-greater" fill="#000000" font-family="Helvetica" font-size="13" font-weight="normal">
                    <tspan x="2865" y="1951">Requires Xcode 12 or greater</tspan>
                </text>
                <text id="Generated-from-list.bullet.rectangle" fill="#000000" font-family="Helvetica" font-size="13" font-weight="normal">
                    <tspan x="2833" y="1969">Generated from list.bullet.rectangle</tspan>
                </text>
                <text id="Typeset-at-100-points" fill="#000000" font-family="Helvetica" font-size="13" font-weight="normal">
                    <tspan x="2912" y="1987">Typeset at 100 points</tspan>
                </text>
                <text id="Small" fill="#000000" font-family="Helvetica" font-size="13" font-weight="normal">
                    <tspan x="263" y="726">Small</tspan>
                </text>
                <text id="Medium" fill="#000000" font-family="Helvetica" font-size="13" font-weight="normal">
                    <tspan x="263" y="1156">Medium</tspan>
                </text>
                <text id="Large" fill="#000000" font-family="Helvetica" font-size="13" font-weight="normal">
                    <tspan x="263" y="1586">Large</tspan>
                </text>
            </g>
            <g id="Guides" transform="translate(263.000000, 625.000000)">
                <g id="H-reference" transform="translate(76.000000, 0.000000)" fill="#27AAE1" fill-rule="nonzero">
                    <path d="M0.976562,71 L3.66211,71 L12.9883,46.5371 L45.752,46.5371 L55.127,71 L57.7637,71 L30.6152,0.541 L28.125,0.541 L0.976562,71 Z M29.3457,3.8613 L29.4434,3.8613 L44.873,44.291 L13.8672,44.291 L29.3457,3.8613 Z" id="Shape"></path>
                </g>
                <line x1="0" y1="71" x2="2773" y2="71" id="Baseline-S" stroke="#27AAE1" stroke-width="0.5"></line>
                <line x1="0" y1="0.541" x2="2773" y2="0.541" id="Capline-S" stroke="#27AAE1" stroke-width="0.5"></line>
                <g id="H-reference" transform="translate(76.000000, 430.000000)" fill="#27AAE1" fill-rule="nonzero">
                    <path d="M0.976562,71 L3.66211,71 L12.9883,46.5371 L45.752,46.5371 L55.127,71 L57.7637,71 L30.6152,0.541 L28.125,0.541 L0.976562,71 Z M29.3457,3.8613 L29.4434,3.8613 L44.873,44.291 L13.8672,44.291 L29.3457,3.8613 Z" id="Shape"></path>
                </g>
                <line x1="0" y1="501" x2="2773" y2="501" id="Baseline-M" stroke="#27AAE1" stroke-width="0.5"></line>
                <line x1="0" y1="430.54" x2="2773" y2="430.54" id="Capline-M" stroke="#27AAE1" stroke-width="0.5"></line>
                <g id="H-reference" transform="translate(76.000000, 860.000000)" fill="#27AAE1" fill-rule="nonzero">
                    <path d="M0.976562,71 L3.66211,71 L12.9883,46.5371 L45.752,46.5371 L55.127,71 L57.7637,71 L30.6152,0.541 L28.125,0.541 L0.976562,71 Z M29.3457,3.8613 L29.4434,3.8613 L44.873,44.291 L13.8672,44.291 L29.3457,3.8613 Z" id="Shape"></path>
                </g>
                <line x1="0" y1="931" x2="2773" y2="931" id="Baseline-L" stroke="#27AAE1" stroke-width="0.5"></line>
                <line x1="0" y1="860.54" x2="2773" y2="860.54" id="Capline-L" stroke="#27AAE1" stroke-width="0.5"></line>
                <line x1="1116.82" y1="405.79" x2="1116.82" y2="525.12" id="left-margin" stroke="#00AEEF" stroke-width="0.5"></line>
                <line x1="1256.86" y1="405.79" x2="1256.86" y2="525.12" id="right-margin" stroke="#00AEEF" stroke-width="0.5"></line>
            </g>
            <g id="Symbols" transform="translate(1391.000000, 1044.000000)" fill="#000000" fill-rule="nonzero">
                <g id="Semibold-M" transform="translate(593.760000, 0.000000)">
                    <path d="M17.1016,92.9863 L99.914,92.9863 C110.803,92.9863 116.564,87.17578 116.564,76.43359 L116.564,17.1562 C116.564,6.4141 110.803,0.6523 99.914,0.6523 L17.1016,0.6523 C6.2617,0.6523 0.4512,6.4141 0.4512,17.1562 L0.4512,76.43359 C0.4512,87.22461 6.2617,92.9863 17.1016,92.9863 Z M18.127,81.804688 C13.8789,81.804688 11.6328,79.65625 11.6328,75.21289 L11.6328,18.377 C11.6328,13.9336 13.8789,11.834 18.127,11.834 L98.889,11.834 C103.088,11.834 105.383,13.9336 105.383,18.377 L105.383,75.21289 C105.383,79.65625 103.088,81.804688 98.889,81.804688 L18.127,81.804688 Z M26.1836,29.9004 C28.7227,29.9004 30.7734,27.8984 30.7734,25.3594 C30.7734,22.8203 28.7227,20.7695 26.1836,20.7695 C23.6934,20.7695 21.6426,22.8691 21.6426,25.3594 C21.6426,27.8496 23.6934,29.9004 26.1836,29.9004 Z M39.5137,28.6309 L92.297,28.6309 C94.104,28.6309 95.568,27.166 95.568,25.3594 C95.568,23.5527 94.055,22.0879 92.297,22.0879 L39.5137,22.0879 C37.707,22.0879 36.2422,23.5527 36.2422,25.3594 C36.2422,27.166 37.6582,28.6309 39.5137,28.6309 Z M41.1836,43.9629 C43.7227,43.9629 45.7734,41.9121 45.7734,39.4219 C45.7734,36.8828 43.7227,34.832 41.1836,34.832 C38.6934,34.832 36.6426,36.9316 36.6426,39.4219 C36.6426,41.8633 38.6934,43.9629 41.1836,43.9629 Z M54.5137,42.6934 L84.3477,42.6934 C86.1543,42.6934 87.668,41.1797 87.668,39.4219 C87.668,37.6152 86.1543,36.1016 84.3477,36.1016 L54.5137,36.1016 C52.707,36.1016 51.2422,37.6152 51.2422,39.4219 C51.2422,41.1797 52.707,42.6934 54.5137,42.6934 Z M26.1836,57.9277 C28.7227,57.9277 30.7734,55.9258 30.7734,53.3867 C30.7734,50.8965 28.7227,48.8945 26.1836,48.8945 C23.6445,48.8945 21.6426,50.9453 21.6426,53.3867 C21.6426,55.9258 23.6445,57.9277 26.1836,57.9277 Z M39.5137,56.707 L92.297,56.707 C94.104,56.707 95.568,55.2422 95.568,53.3867 C95.568,51.5801 94.104,50.1641 92.297,50.1641 L39.5137,50.1641 C37.6582,50.1641 36.2422,51.5801 36.2422,53.3867 C36.2422,55.2422 37.6582,56.707 39.5137,56.707 Z M41.1836,72.67383 C43.7227,72.67383 45.7734,70.623 45.7734,68.084 C45.7734,65.5938 43.7227,63.543 41.1836,63.543 C38.6934,63.543 36.6426,65.6426 36.6426,68.084 C36.6426,70.5742 38.6934,72.67383 41.1836,72.67383 Z M54.5137,71.4043 L84.3477,71.4043 C86.1543,71.4043 87.668,69.8906 87.668,68.084 C87.668,66.3262 86.2031,64.8613 84.3477,64.8613 L54.5137,64.8613 C52.6582,64.8613 51.2422,66.3262 51.2422,68.084 C51.2422,69.8906 52.707,71.4043 54.5137,71.4043 Z" id="Shape"></path>
                </g>
                <g id="Medium-M" transform="translate(297.240000, 1.000000)">
                    <path d="M16.5156,91.4492 L100.061,91.4492 C110.656,91.4492 116.174,85.98047 116.174,75.53125 L116.174,16.1074 C116.174,5.6582 110.656,0.1895 100.061,0.1895 L16.5156,0.1895 C5.9688,0.1895 0.4512,5.6094 0.4512,16.1074 L0.4512,75.53125 C0.4512,85.98047 5.9688,91.4492 16.5156,91.4492 Z M17.1504,81.732422 C12.6582,81.732422 10.168,79.38867 10.168,74.65234 L10.168,16.9863 C10.168,12.25 12.6582,9.9062 17.1504,9.9062 L99.426,9.9062 C103.918,9.9062 106.408,12.25 106.408,16.9863 L106.408,74.65234 C106.408,79.38867 103.918,81.732422 99.426,81.732422 L17.1504,81.732422 Z M25.0605,28.3145 C27.5996,28.3145 29.6504,26.2637 29.6504,23.7734 C29.6504,21.2344 27.5996,19.1836 25.0605,19.1836 C22.6191,19.1836 20.5195,21.2832 20.5195,23.7734 C20.5195,26.2148 22.6191,28.3145 25.0605,28.3145 Z M38.9766,26.8984 L93.127,26.8984 C94.934,26.8984 96.301,25.4824 96.301,23.7734 C96.301,22.0156 94.885,20.5508 93.127,20.5508 L38.9766,20.5508 C37.2676,20.5508 35.8027,22.0156 35.8027,23.7734 C35.8027,25.4824 37.2188,26.8984 38.9766,26.8984 Z M42.0605,42.7676 C44.5996,42.7676 46.6504,40.7168 46.6504,38.1777 C46.6504,35.6875 44.5996,33.6367 42.0605,33.6367 C39.6191,33.6367 37.5195,35.7363 37.5195,38.1777 C37.5195,40.668 39.6191,42.7676 42.0605,42.7676 Z M55.9766,41.4004 L86.3477,41.4004 C88.0566,41.4004 89.5215,39.9355 89.5215,38.1777 C89.5215,36.4688 88.1055,35.0039 86.3477,35.0039 L55.9766,35.0039 C54.2188,35.0039 52.8027,36.4688 52.8027,38.1777 C52.8027,39.9355 54.2676,41.4004 55.9766,41.4004 Z M25.0605,57.123 C27.5996,57.123 29.6504,55.1211 29.6504,52.582 C29.6504,50.0918 27.5996,48.0898 25.0605,48.0898 C22.5703,48.0898 20.5195,50.1406 20.5195,52.582 C20.5195,55.1211 22.5703,57.123 25.0605,57.123 Z M38.9766,55.7559 L93.127,55.7559 C94.934,55.7559 96.301,54.3887 96.301,52.582 C96.301,50.8242 94.934,49.457 93.127,49.457 L38.9766,49.457 C37.2188,49.457 35.8027,50.8242 35.8027,52.582 C35.8027,54.3887 37.2188,55.7559 38.9766,55.7559 Z M42.0605,72.25977 C44.5996,72.25977 46.6504,70.209 46.6504,67.7188 C46.6504,65.1797 44.5996,63.1777 42.0605,63.1777 C39.6191,63.1777 37.5195,65.2285 37.5195,67.7188 C37.5195,70.1602 39.6191,72.25977 42.0605,72.25977 Z M55.9766,70.8926 L86.3477,70.8926 C88.0566,70.8926 89.5215,69.4277 89.5215,67.7188 C89.5215,65.9609 88.1055,64.5449 86.3477,64.5449 L55.9766,64.5449 C54.2188,64.5449 52.8027,65.9609 52.8027,67.7188 C52.8027,69.4277 54.2676,70.8926 55.9766,70.8926 Z" id="Shape"></path>
                </g>
                <g id="Regular-M" transform="translate(0.820000, 1.000000)">
                    <path d="M15.7832,90.76562 L100.256,90.76562 C110.51,90.76562 115.588,85.6875 115.588,75.62891 L115.588,16.0098 C115.588,5.9512 110.51,0.873 100.256,0.873 L15.7832,0.873 C5.5781,0.873 0.4512,5.9023 0.4512,16.0098 L0.4512,75.62891 C0.4512,85.73633 5.5781,90.76562 15.7832,90.76562 Z M15.8809,82.9043 C10.998,82.9043 8.3125,80.316406 8.3125,75.23828 L8.3125,16.4004 C8.3125,11.3223 10.998,8.7344 15.8809,8.7344 L100.158,8.7344 C104.992,8.7344 107.727,11.3223 107.727,16.4004 L107.727,75.23828 C107.727,80.316406 104.992,82.9043 100.158,82.9043 L15.8809,82.9043 Z M23.5957,27.5332 C26.1348,27.5332 28.1367,25.4824 28.1367,22.9922 C28.1367,20.4531 26.1348,18.4512 23.5957,18.4512 C21.1543,18.4512 19.0547,20.502 19.0547,22.9922 C19.0547,25.4336 21.1543,27.5332 23.5957,27.5332 Z M38.3418,25.9707 L94.201,25.9707 C95.959,25.9707 97.277,24.6523 97.277,22.9922 C97.277,21.2832 95.91,19.916 94.201,19.916 L38.3418,19.916 C36.6328,19.916 35.2656,21.2832 35.2656,22.9922 C35.2656,24.6523 36.584,25.9707 38.3418,25.9707 Z M40.5957,42.4746 C43.1348,42.4746 45.1367,40.4238 45.1367,37.9336 C45.1367,35.3945 43.1348,33.3926 40.5957,33.3926 C38.1543,33.3926 36.0547,35.4434 36.0547,37.9336 C36.0547,40.375 38.1543,42.4746 40.5957,42.4746 Z M55.3418,40.9609 L86.2988,40.9609 C87.959,40.9609 89.3262,39.5938 89.3262,37.9336 C89.3262,36.2734 87.959,34.8574 86.2988,34.8574 L55.3418,34.8574 C53.6328,34.8574 52.2656,36.2734 52.2656,37.9336 C52.2656,39.5938 53.6328,40.9609 55.3418,40.9609 Z M23.5957,57.3672 C26.1348,57.3672 28.1367,55.3652 28.1367,52.8262 C28.1367,50.3359 26.1348,48.334 23.5957,48.334 C21.1055,48.334 19.0547,50.3848 19.0547,52.8262 C19.0547,55.3652 21.1055,57.3672 23.5957,57.3672 Z M38.3418,55.9023 L94.201,55.9023 C95.959,55.9023 97.277,54.584 97.277,52.8262 C97.277,51.166 95.959,49.8477 94.201,49.8477 L38.3418,49.8477 C36.584,49.8477 35.2656,51.166 35.2656,52.8262 C35.2656,54.584 36.584,55.9023 38.3418,55.9023 Z M40.5957,73.04102 C43.1348,73.04102 45.1367,70.9902 45.1367,68.5 C45.1367,65.9609 43.1348,63.9102 40.5957,63.9102 C38.1543,63.9102 36.0547,66.0098 36.0547,68.5 C36.0547,70.9414 38.1543,73.04102 40.5957,73.04102 Z M55.3418,71.52734 L86.2988,71.52734 C87.959,71.52734 89.3262,70.1602 89.3262,68.5 C89.3262,66.791 88.0078,65.4727 86.2988,65.4727 L55.3418,65.4727 C53.584,65.4727 52.2656,66.791 52.2656,68.5 C52.2656,70.1602 53.6328,71.52734 55.3418,71.52734 Z" id="Shape"></path>
                </g>
            </g>
        </g>
    </g>
</svg>